<?xml version="1.0" standalone="no"?>
<!DOCTYPE svg PUBLIC "-//W3C//DTD SVG 1.1//EN" "http://www.w3.org/Graphics/SVG/1.1/DTD/svg11.dtd"><svg xmlns="http://www.w3.org/2000/svg" style="background-color:#FFF" width="1167" height="1167"><path stroke="black" fill="none" stroke-width="1" d="M509.88, 320.63L511.44, 319.39L512.93, 318.47L514.4, 317.87L515.88, 317.57L517.41, 317.59L519.03, 317.91L520.78, 318.52L522.68, 319.42L524.1, 320.24L525.28, 321.09L526.23, 322.03L526.97, 323.08L527.51, 324.27L527.88, 325.63L528.09, 327.21L528.15, 329.03L528.17, 330.13L528.29, 330.94L528.59, 331.51L529.17, 331.86L530.1, 332.02L531.47, 332.03L533.37, 331.91L535.89, 331.7L539.26, 331.42L542.91, 331.38L546.37, 331.56L547.9, 331.74L549.22, 331.96L551.07, 332.31L552.46, 332.52L553.46, 332.56L554.12, 332.41L554.53, 332.03L554.74, 331.38L554.81, 330.44L554.83, 329.16L555.11, 327.12L555.91, 325.08L557.14, 323.1L558.71, 321.29L560.54, 319.73L562.53, 318.51L564.62, 317.71L566.7, 317.42L568.56, 317.66L570.61, 318.32L572.64, 319.34L574.43, 320.63L578.16, 323.83L578.97, 373.71L579.05, 378.91L579.12, 383.74L579.18, 388.24L579.25, 392.43L579.31, 396.33L579.38, 399.96L579.47, 403.34L579.56, 406.51L579.82, 412.29L580.18, 417.49L580.68, 422.29L581.35, 426.89L582.23, 431.48L583.34, 436.25L584.72, 441.4L586.41, 447.11L587.38, 450.24L588.43, 453.59L589.58, 457.17L590.82, 461.01L592.17, 465.14L593.61, 469.57L595.17, 474.34L596.84, 479.47L598.29, 484.01L599.67, 488.32L600.96, 492.4L602.17, 496.26L603.3, 499.92L604.35, 503.38L606.23, 509.75L607.82, 515.46L609.14, 520.58L610.19, 525.2L610.99, 529.38L611.56, 533.23L611.9, 536.8L612.03, 540.18L611.97, 543.46L611.32, 550.02L610.75, 553.45L610.04, 557.09L609.03, 561.55L607.82, 565.89L606.42, 570.08L604.86, 574.06L603.15, 577.81L601.32, 581.29L599.39, 584.44L597.37, 587.23L595.82, 589.28L594.64, 591.07L594.23, 591.81L593.96, 592.41L593.84, 592.85L593.9, 593.1L594.24, 593.23L594.92, 593.3L595.9, 593.33L597.14, 593.32L600.2, 593.16L603.77, 592.84L606.75, 592.45L609.61, 591.89L612.37, 591.16L615, 590.26L617.51, 589.21L619.89, 588.01L622.12, 586.66L624.21, 585.17L626.15, 583.54L627.92, 581.77L629.53, 579.88L630.97, 577.87L632.22, 575.74L633.29, 573.5L634.17, 571.15L634.85, 568.7L634.97, 567.92L635.1, 566.65L635.22, 564.93L635.34, 562.77L635.45, 560.22L635.56, 557.29L635.67, 554.01L635.77, 550.42L635.85, 546.55L635.94, 542.41L636.01, 538.04L636.07, 533.47L636.15, 523.84L636.18, 513.75L636.19, 506.28L636.2, 499.54L636.22, 493.5L636.25, 488.12L636.3, 483.34L636.36, 479.13L636.45, 475.45L636.55, 472.25L636.67, 469.5L636.82, 467.14L636.99, 465.14L637.19, 463.46L637.43, 462.06L637.69, 460.88L638.32, 459.06L640.39, 455L642.96, 451.46L645.96, 448.46L649.33, 445.98L652.98, 444.03L656.85, 442.62L660.87, 441.74L664.97, 441.39L669.09, 441.59L673.14, 442.32L677.07, 443.59L680.8, 445.41L684.26, 447.77L687.38, 450.68L690.09, 454.13L692.33, 458.13L693.01, 459.8L693.57, 461.59L694.01, 463.64L694.35, 466.08L694.59, 469.06L694.75, 472.7L694.8, 474.82L694.84, 477.15L694.86, 479.72L694.86, 482.54L694.86, 485.81L694.85, 488.69L694.83, 491.21L694.79, 493.41L694.74, 495.3L694.65, 496.92L694.54, 498.3L694.4, 499.48L693.99, 501.3L693.4, 502.64L692.59, 503.73L691.53, 504.81L689.77, 506.3L687.8, 507.36L685.7, 508L683.53, 508.21L681.36, 508L679.26, 507.36L677.29, 506.3L675.53, 504.81L674.46, 503.73L673.65, 502.65L673.06, 501.38L672.66, 499.73L672.4, 497.49L672.32, 496.09L672.26, 494.48L672.23, 492.62L672.2, 490.49L672.19, 488.07L672.19, 485.34L672.19, 482.95L672.17, 480.78L672.1, 477.05L671.97, 474.05L671.76, 471.68L671.46, 469.85L671.07, 468.44L670.56, 467.37L669.92, 466.53L668.9, 465.53L667.82, 464.81L666.71, 464.38L665.57, 464.23L664.43, 464.38L663.3, 464.81L662.2, 465.53L661.12, 466.53L660.49, 467.58L660.23, 468.41L659.99, 469.5L659.79, 470.92L659.61, 472.7L659.45, 474.91L659.3, 477.59L659.18, 480.79L659.07, 484.57L658.98, 488.97L658.89, 494.05L658.81, 499.85L658.77, 503.05L658.74, 506.44L658.7, 510.04L658.66, 513.85L658.63, 517.89L658.59, 522.15L658.19, 575.5L653.79, 584.57L650.65, 590.11L646.97, 595.22L642.79, 599.86L638.17, 603.99L633.13, 607.58L627.74, 610.58L622.02, 612.97L616.04, 614.71L615.25, 614.86L614.1, 615L612.6, 615.14L610.78, 615.28L608.67, 615.4L606.27, 615.52L603.63, 615.64L600.76, 615.74L594.41, 615.92L587.4, 616.06L579.93, 616.15L572.16, 616.18L568.39, 616.17L564.82, 616.17L558.26, 616.13L552.42, 616.07L547.22, 615.96L542.6, 615.81L538.5, 615.6L534.84, 615.32L531.57, 614.98L528.61, 614.55L525.89, 614.03L520.94, 612.69L516.18, 610.89L513.71, 609.8L511.08, 608.57L509.26, 607.6L507.32, 606.41L505.29, 605.01L503.18, 603.43L498.85, 599.83L494.52, 595.8L490.39, 591.54L486.64, 587.23L483.47, 583.06L482.16, 581.09L481.07, 579.23L479.52, 576.06L478.1, 572.71L476.84, 569.2L475.72, 565.55L473.93, 557.93L472.77, 550.01L472.24, 541.95L472.37, 533.94L473.17, 526.12L473.83, 522.35L474.67, 518.68L475, 517.49L475.44, 515.97L475.97, 514.15L476.6, 512.05L477.31, 509.7L478.1, 507.11L478.96, 504.32L479.89, 501.34L481.91, 494.92L484.1, 488.04L488.81, 473.6L490.28, 469.07L491.66, 464.83L492.95, 460.86L494.15, 457.15L495.26, 453.67L496.29, 450.4L498.12, 444.42L499.66, 439.04L500.94, 434.08L501.99, 429.39L502.83, 424.81L503.49, 420.15L503.99, 415.26L504.37, 409.97L504.66, 404.11L504.77, 400.92L504.87, 397.53L504.95, 393.91L505.03, 390.04L505.11, 385.91L505.18, 381.49L505.26, 376.76L505.35, 371.71L506.14, 323.83L509.88, 320.63"/></svg>