<?xml version="1.0" standalone="no"?>
<!DOCTYPE svg PUBLIC "-//W3C//DTD SVG 20010904//EN"
 "http://www.w3.org/TR/2001/REC-SVG-20010904/DTD/svg10.dtd">
<svg version="1.0" xmlns="http://www.w3.org/2000/svg"
 width="875.000000pt" height="875.000000pt" viewBox="0 0 875.000000 875.000000"
 preserveAspectRatio="xMidYMid meet">

<g transform="translate(0.000000,875.000000) scale(0.100000,-0.100000)"
fill="#000000" stroke="none">
<path d="M3823 6346 l-28 -24 -6 -359 c-7 -418 -2 -389 -124 -764 -48 -145
-95 -297 -106 -338 -37 -144 -17 -331 48 -454 39 -72 155 -186 225 -220 109
-52 148 -57 458 -57 157 0 305 5 329 11 122 28 226 111 283 226 l33 68 3 400
c3 350 5 402 19 417 21 23 46 23 66 0 14 -15 17 -41 17 -141 0 -116 1 -123 25
-146 33 -34 87 -34 120 0 24 23 25 28 25 167 0 118 -4 150 -19 183 -79 171
-333 166 -405 -7 -14 -31 -16 -96 -16 -410 0 -205 -5 -391 -10 -412 -23 -100
-112 -169 -233 -181 -37 -4 -71 -5 -74 -2 -3 3 9 23 26 44 41 52 77 136 95
226 31 151 21 209 -99 582 -138 425 -127 362 -134 793 l-6 374 -28 24 c-16 14
-41 24 -58 24 -41 0 -89 -48 -89 -88 0 -29 0 -29 -42 -21 -24 5 -69 6 -100 2
-57 -5 -58 -5 -58 20 0 39 -10 56 -41 72 -40 21 -64 19 -96 -9z"/>
<path d="M2347 963 c-4 -3 -7 -25 -7 -49 l0 -42 -29 14 c-56 28 -111 -17 -111
-92 0 -58 30 -94 79 -94 20 0 42 5 49 12 9 9 12 9 12 0 0 -7 13 -12 30 -12
l30 0 0 135 c0 135 0 135 -23 135 -13 0 -27 -3 -30 -7z m-19 -125 c17 -17 15
-73 -3 -88 -22 -18 -48 -8 -59 22 -19 53 27 101 62 66z"/>
<path d="M2587 964 c-4 -4 -7 -65 -7 -136 l0 -128 35 0 c21 0 35 5 35 12 0 9
3 9 12 0 7 -7 29 -12 50 -12 32 0 41 5 58 33 35 57 20 130 -33 155 -23 11 -32
11 -57 -1 l-29 -15 -3 47 c-3 41 -6 46 -28 49 -14 2 -29 0 -33 -4z m134 -141
c20 -52 -20 -103 -56 -73 -15 12 -21 81 -8 93 17 18 54 6 64 -20z"/>
<path d="M4030 835 l0 -135 30 0 c17 0 30 5 30 10 0 7 6 7 19 0 62 -33 123 8
123 83 0 80 -52 123 -111 94 l-31 -15 0 49 c0 48 -1 49 -30 49 l-30 0 0 -135z
m128 3 c17 -17 15 -73 -3 -88 -22 -18 -48 -8 -59 22 -19 53 27 101 62 66z"/>
<path d="M4520 835 l0 -135 30 0 30 0 0 135 0 135 -30 0 -30 0 0 -135z"/>
<path d="M963 945 c-83 -36 -95 -158 -22 -220 24 -20 41 -25 84 -25 69 0 85 7
85 37 0 21 -3 23 -22 16 -13 -4 -38 -7 -57 -7 -98 2 -92 164 5 164 20 0 44 -5
55 -10 16 -9 19 -7 19 15 0 43 -80 59 -147 30z"/>
<path d="M3223 950 c-26 -11 -43 -40 -43 -74 0 -30 39 -63 86 -72 46 -9 64
-32 39 -50 -23 -17 -39 -17 -87 0 l-38 14 0 -28 c0 -33 18 -40 103 -40 69 0
97 21 97 75 0 42 -28 71 -79 80 -50 8 -65 19 -57 40 5 15 15 17 66 12 55 -6
60 -5 60 13 0 35 -90 53 -147 30z"/>
<path d="M1817 943 c-4 -3 -7 -17 -7 -30 0 -14 -6 -23 -15 -23 -8 0 -15 -9
-15 -20 0 -11 7 -20 15 -20 12 0 15 -13 15 -55 0 -69 22 -95 80 -95 33 0 40 3
40 20 0 13 -7 20 -19 20 -28 0 -43 24 -39 67 3 35 6 38 36 41 23 2 32 8 32 22
0 14 -9 20 -32 22 -28 2 -34 8 -36 31 -3 20 -9 27 -26 27 -12 0 -26 -3 -29 -7z"/>
<path d="M1253 885 c-18 -8 -33 -10 -33 -5 0 6 -13 10 -30 10 l-30 0 0 -95 0
-95 30 0 c30 0 30 1 30 55 0 63 26 101 61 90 16 -5 19 -2 19 24 0 35 -2 36
-47 16z"/>
<path d="M1395 892 c-78 -26 -101 -108 -46 -163 25 -25 37 -29 84 -29 68 0 87
7 87 31 0 17 -5 19 -55 13 -38 -5 -59 -3 -70 6 -28 23 -15 30 55 30 68 0 70 1
70 26 0 38 -18 64 -55 80 -37 15 -40 15 -70 6z m63 -59 c2 -9 -8 -13 -32 -13
-34 0 -44 8 -29 24 11 11 56 2 61 -11z"/>
<path d="M1610 891 c-27 -5 -36 -12 -38 -29 -4 -23 5 -24 63 -7 16 4 55 -13
55 -25 0 -5 -19 -10 -43 -10 -23 0 -53 -7 -65 -16 -26 -18 -30 -65 -6 -88 18
-18 66 -21 95 -6 13 7 19 7 19 0 0 -5 14 -10 30 -10 l30 0 0 71 c0 39 -5 79
-10 89 -8 16 -72 43 -90 39 -3 -1 -21 -4 -40 -8z m80 -114 c0 -20 -22 -37 -47
-37 -16 0 -23 6 -23 19 0 11 6 22 13 24 24 10 57 7 57 -6z"/>
<path d="M2033 893 c-12 -2 -34 -18 -48 -34 -35 -43 -34 -92 4 -130 25 -25 37
-29 84 -29 68 0 87 7 87 30 0 16 -7 17 -59 13 -53 -5 -60 -3 -70 16 -11 21
-10 21 64 21 l77 0 -7 33 c-12 58 -69 93 -132 80z m65 -60 c2 -9 -8 -13 -32
-13 -34 0 -44 8 -29 24 11 11 56 2 61 -11z"/>
<path d="M3756 885 c-14 -8 -26 -10 -26 -4 0 5 -16 9 -35 9 l-35 0 0 -95 0
-95 35 0 34 0 3 66 c2 51 7 70 21 78 26 16 37 -7 37 -81 l0 -63 30 0 30 0 0
64 c0 67 15 94 45 82 11 -4 15 -22 15 -76 l0 -70 30 0 30 0 0 78 c0 83 -4 93
-37 111 -23 12 -65 2 -78 -19 -5 -8 -12 -7 -23 3 -28 23 -48 26 -76 12z"/>
<path d="M4333 889 c-42 -12 -63 -44 -63 -97 0 -62 32 -92 99 -92 71 0 104 30
104 94 0 37 -5 52 -24 71 -29 28 -72 37 -116 24z m66 -53 c17 -20 10 -77 -11
-90 -26 -16 -52 4 -56 43 -4 36 12 61 38 61 10 0 23 -6 29 -14z"/>
<path d="M4693 889 c-42 -12 -63 -44 -63 -97 0 -62 32 -92 99 -92 71 0 106 31
106 94 0 75 -64 118 -142 95z m65 -51 c7 -7 12 -26 12 -43 0 -52 -48 -76 -70
-36 -22 42 -6 91 30 91 9 0 21 -5 28 -12z"/>
<path d="M4973 885 c-18 -8 -33 -10 -33 -5 0 6 -13 10 -30 10 l-30 0 0 -95 0
-95 30 0 c30 0 30 0 30 59 0 63 17 95 49 89 13 -3 17 -18 19 -76 l3 -72 29 0
30 0 0 78 c0 107 -28 137 -97 107z"/>
<path d="M2847 808 c49 -113 52 -134 19 -142 -17 -4 -26 -13 -26 -26 0 -22 23
-26 63 -11 24 9 35 31 101 199 l25 62 -33 0 c-31 0 -33 -3 -53 -62 -19 -59
-21 -61 -30 -38 -41 100 -41 100 -72 100 l-30 0 36 -82z"/>
<path d="M3455 790 c39 -89 42 -102 29 -115 -9 -8 -22 -15 -30 -15 -9 0 -14
-7 -12 -17 3 -13 13 -18 36 -16 45 2 56 14 85 91 14 37 35 91 46 120 l21 53
-32 -3 c-28 -3 -33 -8 -50 -57 -10 -30 -20 -56 -22 -58 -2 -2 -14 23 -27 56
-22 57 -26 61 -56 61 l-32 0 44 -100z"/>
<path d="M947 608 c-19 -7 -30 -19 -34 -39 -3 -16 -12 -29 -19 -29 -8 0 -14
-9 -14 -20 0 -11 7 -20 15 -20 12 0 15 -15 15 -75 l0 -75 30 0 29 0 3 73 c3
70 4 72 31 75 19 2 27 9 27 23 0 14 -7 19 -30 19 -16 0 -30 4 -30 8 0 14 23
32 42 32 11 0 18 7 18 20 0 23 -34 26 -83 8z"/>
<path d="M2127 613 c-4 -3 -7 -64 -7 -135 l0 -128 29 0 c28 0 29 2 33 60 5 64
25 97 52 87 13 -5 16 -22 16 -77 l0 -70 35 0 35 0 -1 63 c-1 84 -10 110 -42
125 -23 11 -32 11 -59 -2 -17 -9 -33 -16 -35 -16 -1 0 -3 23 -3 50 0 46 -2 50
-23 50 -13 0 -27 -3 -30 -7z"/>
<path d="M4560 596 c0 -22 4 -26 31 -26 26 0 30 3 27 23 -2 16 -11 23 -30 25
-24 3 -28 0 -28 -22z"/>
<path d="M2737 603 c-4 -3 -7 -62 -7 -130 l0 -123 35 0 35 0 0 83 0 82 46 -82
c43 -79 47 -83 80 -83 l34 0 0 131 0 130 -27 -3 c-28 -3 -28 -4 -33 -87 l-5
-83 -22 46 c-46 95 -71 126 -101 126 -16 0 -32 -3 -35 -7z"/>
<path d="M3890 481 l0 -131 30 0 c29 0 30 2 30 45 l0 45 40 0 c60 0 98 23 105
64 13 68 -21 95 -131 103 l-74 6 0 -132z m133 58 c17 -28 1 -49 -38 -49 -32 0
-35 3 -35 28 0 16 3 32 7 36 12 12 55 2 66 -15z"/>
<path d="M1967 593 c-4 -3 -7 -17 -7 -30 0 -14 -6 -23 -15 -23 -8 0 -15 -9
-15 -20 0 -11 7 -20 15 -20 11 0 15 -13 15 -53 0 -73 19 -97 76 -97 37 0 44 3
44 20 0 13 -7 20 -19 20 -28 0 -43 24 -39 67 3 35 6 38 36 41 24 2 32 8 32 23
0 15 -7 19 -35 19 -32 0 -35 2 -35 30 0 25 -4 30 -23 30 -13 0 -27 -3 -30 -7z"/>
<path d="M5130 575 c0 -14 -7 -28 -15 -31 -8 -4 -15 -14 -15 -24 0 -10 7 -20
15 -24 11 -4 15 -21 15 -65 0 -68 12 -81 74 -81 29 0 36 4 36 19 0 13 -8 21
-22 23 -20 3 -23 10 -26 56 l-3 52 30 0 c24 0 31 4 31 20 0 15 -7 20 -29 20
-25 0 -30 4 -33 28 -2 21 -9 28 -30 30 -24 3 -28 0 -28 -23z"/>
<path d="M1148 536 c-16 -8 -28 -11 -28 -5 0 5 -13 9 -30 9 l-30 0 0 -95 0
-95 30 0 c30 0 30 0 30 59 0 69 18 96 57 86 22 -5 24 -3 21 21 -4 34 -15 38
-50 20z"/>
<path d="M1273 536 c-39 -18 -53 -43 -53 -96 0 -60 33 -90 98 -90 58 0 88 20
100 65 25 88 -60 159 -145 121z m76 -50 c17 -20 10 -77 -11 -90 -26 -16 -52 4
-56 43 -4 36 12 61 38 61 10 0 23 -6 29 -14z"/>
<path d="M1558 535 c-16 -7 -28 -10 -28 -4 0 5 -13 9 -30 9 l-30 0 0 -95 0
-95 30 0 c30 0 30 0 30 58 0 64 17 99 44 89 13 -5 16 -21 16 -77 l0 -70 30 0
c28 0 30 2 30 39 0 59 11 102 28 108 25 10 42 -27 42 -89 l0 -58 31 0 31 0 -4
80 c-2 58 -8 84 -20 96 -22 22 -74 22 -95 1 -14 -13 -18 -14 -27 -3 -18 22
-49 27 -78 11z"/>
<path d="M2425 539 c-73 -21 -89 -128 -26 -176 17 -13 108 -17 135 -7 9 3 16
14 16 25 0 16 -6 17 -50 12 -33 -4 -55 -2 -65 7 -28 23 -15 30 55 30 68 0 70
1 70 26 0 38 -18 64 -55 80 -38 16 -39 16 -80 3z m73 -56 c2 -9 -9 -13 -38
-13 -37 0 -41 2 -30 16 15 17 61 15 68 -3z"/>
<path d="M3085 542 c-76 -25 -99 -102 -49 -161 22 -27 32 -31 74 -31 63 0 78
6 95 41 33 62 8 132 -53 148 -41 12 -38 12 -67 3z m67 -67 c18 -40 0 -80 -36
-80 -36 0 -52 37 -37 78 14 37 57 37 73 2z"/>
<path d="M3608 535 c-16 -7 -28 -10 -28 -4 0 5 -16 9 -35 9 l-35 0 0 -95 0
-95 35 0 34 0 3 66 c2 50 7 70 20 78 27 17 40 -4 45 -78 6 -65 6 -66 35 -66
l30 0 -4 80 c-3 82 -12 102 -53 114 -11 3 -32 -1 -47 -9z"/>
<path d="M4235 534 c-19 -10 -31 -11 -33 -5 -2 6 -17 11 -33 11 l-29 0 0 -95
0 -95 30 0 c30 0 30 1 30 55 0 62 26 101 61 92 15 -4 19 0 19 24 0 33 -4 35
-45 13z"/>
<path d="M4375 542 c-76 -25 -99 -102 -49 -161 23 -27 32 -31 77 -31 29 0 59
6 68 13 63 48 46 156 -29 176 -41 12 -38 12 -67 3z m66 -66 c18 -39 -1 -81
-36 -81 -23 0 -30 6 -36 28 -4 16 -4 40 1 53 13 33 56 33 71 0z"/>
<path d="M4733 543 c-12 -2 -34 -18 -48 -34 -35 -43 -34 -92 4 -130 25 -25 37
-29 84 -29 68 0 87 7 87 30 0 16 -7 17 -59 13 -53 -5 -60 -3 -70 16 -11 21
-10 21 64 21 l77 0 -7 33 c-12 58 -69 93 -132 80z m65 -60 c2 -9 -8 -13 -32
-13 -34 0 -44 8 -29 24 11 11 56 2 61 -11z"/>
<path d="M4963 539 c-40 -12 -63 -43 -63 -86 0 -74 37 -106 116 -101 42 3 49
6 52 25 3 20 0 21 -33 16 -42 -7 -75 17 -75 53 0 37 28 57 72 51 32 -4 38 -2
38 13 0 11 -3 21 -7 23 -20 12 -71 15 -100 6z"/>
<path d="M3260 473 c0 -90 14 -117 63 -121 21 -2 45 2 53 9 10 8 14 8 14 0 0
-6 16 -11 35 -11 l35 0 0 95 0 95 -35 0 -34 0 -3 -66 c-2 -50 -7 -70 -20 -78
-27 -17 -40 4 -45 78 -6 65 -6 66 -34 66 l-29 0 0 -67z"/>
<path d="M4560 453 c0 -105 -6 -130 -31 -138 -20 -7 -26 -30 -10 -39 5 -3 23
-3 41 1 46 9 60 49 60 168 l0 95 -30 0 -30 0 0 -87z"/>
</g>
</svg>
